  <svg
                                    viewBox="0 0 24 24"
                                    fill="none"
                                    xmlns="http://www.w3.org/2000/svg"
                                 >
                                    <path
                                       d="M19.0406 19.0408H16.0775V14.3988C16.0775 13.292 16.0575 11.8668 14.536 11.8668C12.9927 11.8668 12.7563 13.0726 12.7563 14.3175V19.0404H9.79314V9.49713H12.6378V10.8015H12.6762C12.9609 10.3147 13.3723 9.91427 13.8666 9.64282C14.361 9.37138 14.9197 9.23909 15.4832 9.26004C18.4867 9.26004 19.0406 11.2358 19.0406 13.8057V19.0408ZM6.44939 8.19239C6.10922 8.19246 5.77667 8.09166 5.4938 7.90273C5.21092 7.7138 4.99043 7.44522 4.8602 7.13097C4.72997 6.81672 4.69586 6.47091 4.76217 6.13727C4.82849 5.80363 4.99226 5.49715 5.23276 5.25659C5.47327 5.01603 5.77972 4.85219 6.11334 4.7858C6.44697 4.71941 6.79279 4.75344 7.10707 4.8836C7.42135 5.01376 7.68997 5.23419 7.87897 5.51703C8.06796 5.79986 8.16884 6.13239 8.16884 6.47256C8.16884 6.92862 7.98769 7.36601 7.66525 7.68853C7.3428 8.01105 6.90545 8.19229 6.44939 8.19239ZM7.93098 19.0404H4.96472V9.49713H7.93137L7.93098 19.0404ZM20.5165 2.0013H3.47546C3.28376 1.99897 3.09348 2.03447 2.91552 2.10578C2.73755 2.17709 2.57541 2.2828 2.43835 2.41686C2.3013 2.55092 2.19204 2.71069 2.11682 2.88703C2.0416 3.06338 2.0019 3.25283 2 3.44453V20.5546C2.00455 20.9416 2.16255 21.311 2.43927 21.5816C2.71599 21.8522 3.08882 22.0019 3.47584 21.9978H20.5165C20.9045 22.0031 21.2788 21.854 21.5569 21.5833C21.835 21.3127 21.9943 20.9427 21.9996 20.5546V3.44146C21.9941 3.05366 21.8347 2.68395 21.5565 2.41365C21.2784 2.14336 20.9043 1.99462 20.5165 2.00015"
                                       fill="CurrentColor"
                                    />
                                 </svg>