<svg width="526" height="178" viewBox="0 0 526 178" fill="none" xmlns="http://www.w3.org/2000/svg">
<g clip-path="url(#clip0_583_16721)">
<path fill-rule="evenodd" clip-rule="evenodd" d="M181 76C181 77.1046 180.105 78 179 78L175.167 78C174.062 78 173.167 77.1046 173.167 76C173.167 74.8954 174.062 74 175.167 74L179 74C180.105 74 181 74.8954 181 76ZM169.5 76C169.5 77.1046 168.605 78 167.5 78L159.833 78C158.729 78 157.833 77.1046 157.833 76C157.833 74.8954 158.729 74 159.833 74L167.5 74C168.605 74 169.5 74.8954 169.5 76ZM154.167 76C154.167 77.1046 153.271 78 152.167 78L144.5 78C143.395 78 142.5 77.1046 142.5 76C142.5 74.8954 143.395 74 144.5 74L152.167 74C153.271 74 154.167 74.8954 154.167 76ZM138.833 76C138.833 77.1046 137.938 78 136.833 78L129.167 78C128.062 78 127.167 77.1046 127.167 76C127.167 74.8954 128.062 74 129.167 74L136.833 74C137.938 74 138.833 74.8954 138.833 76ZM123.5 76C123.5 77.1046 122.605 78 121.5 78L113.833 78C112.729 78 111.833 77.1046 111.833 76C111.833 74.8954 112.729 74 113.833 74L121.5 74C122.605 74 123.5 74.8954 123.5 76ZM108.167 76C108.167 77.1046 107.271 78 106.167 78L98.5 78C97.3954 78 96.5 77.1046 96.5 76C96.5 74.8954 97.3954 74 98.5 74L106.167 74C107.271 74 108.167 74.8954 108.167 76ZM92.8333 76C92.8333 77.1046 91.9379 78 90.8333 78L87 78C85.8954 78 85 77.1046 85 76C85 74.8954 85.8954 74 87 74L90.8333 74C91.9379 74 92.8333 74.8954 92.8333 76Z" fill="#B99960"/>
<path d="M191 74.2679C192.333 75.0377 192.333 76.9623 191 77.7321L182 82.9282C180.667 83.698 179 82.7358 179 81.1962L179 70.8038C179 69.2642 180.667 68.302 182 69.0718L191 74.2679Z" fill="#B99960"/>
</g>
<g clip-path="url(#clip1_583_16721)">
<path fill-rule="evenodd" clip-rule="evenodd" d="M364 76C364 77.1046 363.105 78 362 78L358.167 78C357.062 78 356.167 77.1046 356.167 76C356.167 74.8954 357.062 74 358.167 74L362 74C363.105 74 364 74.8954 364 76ZM352.5 76C352.5 77.1046 351.605 78 350.5 78L342.833 78C341.729 78 340.833 77.1046 340.833 76C340.833 74.8954 341.729 74 342.833 74L350.5 74C351.605 74 352.5 74.8954 352.5 76ZM337.167 76C337.167 77.1046 336.271 78 335.167 78L327.5 78C326.395 78 325.5 77.1046 325.5 76C325.5 74.8954 326.395 74 327.5 74L335.167 74C336.271 74 337.167 74.8954 337.167 76ZM321.833 76C321.833 77.1046 320.938 78 319.833 78L312.167 78C311.062 78 310.167 77.1046 310.167 76C310.167 74.8954 311.062 74 312.167 74L319.833 74C320.938 74 321.833 74.8954 321.833 76ZM306.5 76C306.5 77.1046 305.605 78 304.5 78L296.833 78C295.729 78 294.833 77.1046 294.833 76C294.833 74.8954 295.729 74 296.833 74L304.5 74C305.605 74 306.5 74.8954 306.5 76ZM291.167 76C291.167 77.1046 290.271 78 289.167 78L281.5 78C280.395 78 279.5 77.1046 279.5 76C279.5 74.8954 280.395 74 281.5 74L289.167 74C290.271 74 291.167 74.8954 291.167 76ZM275.833 76C275.833 77.1046 274.938 78 273.833 78L270 78C268.895 78 268 77.1046 268 76C268 74.8954 268.895 74 270 74L273.833 74C274.938 74 275.833 74.8954 275.833 76Z" fill="#B99960"/>
<path d="M374 74.2679C375.333 75.0377 375.333 76.9623 374 77.7321L365 82.9282C363.667 83.698 362 82.7358 362 81.1962L362 70.8038C362 69.2642 363.667 68.302 365 69.0718L374 74.2679Z" fill="#B99960"/>
</g>
<g clip-path="url(#clip2_583_16721)">
<path d="M0 136C0 129.373 5.37258 124 12 124H124C130.627 124 136 129.373 136 136V178H0V136Z" fill="#313C3D"/>
<rect x="12" y="148" width="112" height="48" rx="8" fill="#0A2A30"/>
<circle cx="12" cy="136" r="4" fill="#0A2A30"/>
<circle cx="24" cy="136" r="4" fill="#0A2A30"/>
<circle cx="36" cy="136" r="4" fill="#0A2A30"/>
<rect opacity="0.5" y="122" width="136" height="48" fill="url(#paint0_linear_583_16721)"/>
<rect opacity="0.5" width="136" height="8" transform="matrix(1 0 0 -1 0 178)" fill="black"/>
</g>
<rect x="14" y="24" width="136" height="88" rx="12" fill="#313C3D"/>
<rect x="26" y="64" width="112" height="24" rx="12" fill="#0A2A30"/>
<circle cx="116" cy="74" r="4.5" stroke="#656B65" stroke-width="3"/>
<path d="M120 78L124 82" stroke="#656B65" stroke-width="3" stroke-linecap="round"/>
<circle cx="26" cy="36" r="4" fill="#0A2A30"/>
<circle cx="38" cy="36" r="4" fill="#0A2A30"/>
<circle cx="50" cy="36" r="4" fill="#0A2A30"/>
<rect x="236" y="102" width="32" height="32" rx="6" fill="#313C3D"/>
<path d="M208.018 75.1801C207.881 74.6677 207.953 74.1218 208.218 73.6624L213.754 64.0746C214.019 63.6152 214.456 63.28 214.968 63.1427L230.589 58.9572C233.789 58.0996 237.079 59.9991 237.937 63.1999L243.114 82.5184C243.971 85.7192 242.072 89.0092 238.871 89.8669L219.552 95.0432C216.352 95.9009 213.062 94.0014 212.204 90.8006L208.018 75.1801Z" fill="#313C3D"/>
<mask id="mask0_583_16721" style="mask-type:alpha" maskUnits="userSpaceOnUse" x="207" y="58" width="37" height="38">
<path d="M208.018 75.1801C207.881 74.6677 207.953 74.1218 208.218 73.6624L213.754 64.0746C214.019 63.6152 214.456 63.28 214.968 63.1427L230.589 58.9572C233.789 58.0996 237.079 59.9991 237.937 63.1999L243.114 82.5184C243.971 85.7192 242.072 89.0092 238.871 89.8669L219.552 95.0432C216.352 95.9009 213.062 94.0014 212.204 90.8006L208.018 75.1801Z" fill="#313C3D"/>
</mask>
<g mask="url(#mask0_583_16721)">
<path d="M208.063 75.3458L206.51 69.5502C205.938 67.4164 207.204 65.223 209.338 64.6512L215.134 63.0983L216.169 66.962C217.027 70.1628 215.127 73.4529 211.927 74.3105L208.063 75.3458Z" fill="#656B65"/>
</g>
<path fill-rule="evenodd" clip-rule="evenodd" d="M286 64.777C285.357 64.9229 284.687 65 284 65C279.029 65 275 60.9706 275 56C275 55.662 275.019 55.3283 275.055 55L260 55C256.686 55 254 57.6863 254 61V81C254 84.3137 256.686 87 260 87H280C283.314 87 286 84.3137 286 81V64.777Z" fill="#656B65"/>
<circle cx="284" cy="56" r="6" fill="#B99960"/>
<path fill-rule="evenodd" clip-rule="evenodd" d="M313 120.777C312.357 120.923 311.687 121 311 121C306.029 121 302 116.971 302 112C302 111.662 302.019 111.328 302.055 111H287C283.686 111 281 113.686 281 117V137C281 140.314 283.686 143 287 143H307C310.314 143 313 140.314 313 137V120.777Z" fill="#313C3D"/>
<circle cx="311" cy="112" r="6" fill="#B99960"/>
<rect x="262" y="24" width="39" height="8" rx="4" fill="#313C3D"/>
<rect x="262" y="8" width="65" height="8" rx="4" fill="#313C3D"/>
<rect x="301" y="60" width="32" height="32" rx="6" fill="#313C3D"/>
<g clip-path="url(#clip3_583_16721)">
<path d="M381 52C381 45.3726 386.373 40 393 40H514C520.627 40 526 45.3726 526 52V178H381V52Z" fill="#313C3D"/>
<rect x="437" y="65" width="36" height="53" rx="8" fill="#0A2A30"/>
<rect x="414" y="146" width="36" height="53" rx="8" fill="#0A2A30"/>
<rect x="462" y="143" width="36" height="53" rx="8" fill="#0A2A30"/>
<rect x="481" y="76" width="36" height="53" rx="8" fill="#0A2A30"/>
<circle cx="393" cy="52" r="4" fill="#0A2A30"/>
<circle cx="405" cy="52" r="4" fill="#0A2A30"/>
<circle cx="417" cy="52" r="4" fill="#0A2A30"/>
<rect opacity="0.5" x="381" y="122" width="145" height="48" fill="url(#paint1_linear_583_16721)"/>
<rect opacity="0.5" width="145" height="8" transform="matrix(1 0 0 -1 381 178)" fill="black"/>
<rect x="393" y="73" width="36" height="53" rx="8" fill="#656B65"/>
<path d="M419.309 122.93C418.609 121.276 420.276 119.609 421.93 120.309L435.41 126.013C436.808 126.605 436.705 128.621 435.253 129.066C431.813 130.121 429.121 132.813 428.066 136.253C427.621 137.705 425.605 137.808 425.013 136.41L419.309 122.93Z" fill="#B99960"/>
</g>
<mask id="mask1_583_16721" style="mask-type:alpha" maskUnits="userSpaceOnUse" x="214" y="0" width="40" height="40">
<circle cx="234" cy="20" r="20" fill="#656B65"/>
</mask>
<g mask="url(#mask1_583_16721)">
<path d="M254 20C254 31.0457 245.046 40 234 40C222.954 40 214 31.0457 214 20C214 8.9543 222.954 0 234 0C245.046 0 254 8.9543 254 20Z" fill="#313C3D"/>
<path d="M221.423 32.1706C222.09 28.8319 225.022 26.4286 228.427 26.4286H239.572C242.977 26.4286 245.909 28.8319 246.577 32.1706V32.1706C247.461 36.5906 244.08 40.7143 239.572 40.7143H228.427C223.919 40.7143 220.539 36.5906 221.423 32.1706V32.1706Z" fill="#0D1E21"/>
<path d="M248.837 22.2058C250.306 22.0493 251.516 21.8925 252.417 21.7646C251.528 31.1541 243.622 38.5 234 38.5C224.361 38.5 216.444 31.1281 215.578 21.7147C216.702 21.8498 218.308 22.029 220.256 22.208C224.172 22.5678 229.488 22.9286 235.071 22.9286C240.657 22.9286 245.444 22.5674 248.837 22.2058Z" stroke="#313C3D" stroke-width="3"/>
<circle cx="234.715" cy="14.2857" r="8.57143" fill="#0D1E21"/>
</g>
<defs>
<linearGradient id="paint0_linear_583_16721" x1="86.9848" y1="170" x2="86.9848" y2="122" gradientUnits="userSpaceOnUse">
<stop/>
<stop offset="1" stop-opacity="0"/>
</linearGradient>
<linearGradient id="paint1_linear_583_16721" x1="473.741" y1="170" x2="473.741" y2="122" gradientUnits="userSpaceOnUse">
<stop/>
<stop offset="1" stop-opacity="0"/>
</linearGradient>
<clipPath id="clip0_583_16721">
<rect width="109" height="20" fill="white" transform="translate(85 66)"/>
</clipPath>
<clipPath id="clip1_583_16721">
<rect width="69" height="20" fill="white" transform="translate(308 66)"/>
</clipPath>
<clipPath id="clip2_583_16721">
<path d="M0 136C0 129.373 5.37258 124 12 124H124C130.627 124 136 129.373 136 136V178H0V136Z" fill="white"/>
</clipPath>
<clipPath id="clip3_583_16721">
<path d="M381 52C381 45.3726 386.373 40 393 40H514C520.627 40 526 45.3726 526 52V178H381V52Z" fill="white"/>
</clipPath>
</defs>
</svg>
