<svg width="526" height="178" viewBox="0 0 526 178" fill="none" xmlns="http://www.w3.org/2000/svg">
<g clip-path="url(#clip0_586_16846)">
<g clip-path="url(#clip1_586_16846)">
<path fill-rule="evenodd" clip-rule="evenodd" d="M364 78C364 79.1046 363.105 80 362 80L358.167 80C357.062 80 356.167 79.1046 356.167 78C356.167 76.8954 357.062 76 358.167 76L362 76C363.105 76 364 76.8954 364 78ZM352.5 78C352.5 79.1046 351.605 80 350.5 80L342.833 80C341.729 80 340.833 79.1046 340.833 78C340.833 76.8954 341.729 76 342.833 76L350.5 76C351.605 76 352.5 76.8954 352.5 78ZM337.167 78C337.167 79.1046 336.271 80 335.167 80L327.5 80C326.395 80 325.5 79.1046 325.5 78C325.5 76.8954 326.395 76 327.5 76L335.167 76C336.271 76 337.167 76.8954 337.167 78ZM321.833 78C321.833 79.1046 320.938 80 319.833 80L312.167 80C311.062 80 310.167 79.1046 310.167 78C310.167 76.8954 311.062 76 312.167 76L319.833 76C320.938 76 321.833 76.8954 321.833 78ZM306.5 78C306.5 79.1046 305.605 80 304.5 80L296.833 80C295.729 80 294.833 79.1046 294.833 78C294.833 76.8954 295.729 76 296.833 76L304.5 76C305.605 76 306.5 76.8954 306.5 78ZM291.167 78C291.167 79.1046 290.271 80 289.167 80L281.5 80C280.395 80 279.5 79.1046 279.5 78C279.5 76.8954 280.395 76 281.5 76L289.167 76C290.271 76 291.167 76.8954 291.167 78ZM275.833 78C275.833 79.1046 274.938 80 273.833 80L270 80C268.895 80 268 79.1046 268 78C268 76.8954 268.895 76 270 76L273.833 76C274.938 76 275.833 76.8954 275.833 78Z" fill="#B99960"/>
<path d="M374 76.2679C375.333 77.0377 375.333 78.9623 374 79.7321L365 84.9282C363.667 85.698 362 84.7358 362 83.1962L362 72.8038C362 71.2642 363.667 70.302 365 71.0718L374 76.2679Z" fill="#B99960"/>
</g>
<g clip-path="url(#clip2_586_16846)">
<path fill-rule="evenodd" clip-rule="evenodd" d="M183 78C183 79.1046 182.105 80 181 80L177.167 80C176.062 80 175.167 79.1046 175.167 78C175.167 76.8954 176.062 76 177.167 76L181 76C182.105 76 183 76.8954 183 78ZM171.5 78C171.5 79.1046 170.605 80 169.5 80L161.833 80C160.729 80 159.833 79.1046 159.833 78C159.833 76.8954 160.729 76 161.833 76L169.5 76C170.605 76 171.5 76.8954 171.5 78ZM156.167 78C156.167 79.1046 155.271 80 154.167 80L146.5 80C145.395 80 144.5 79.1046 144.5 78C144.5 76.8954 145.395 76 146.5 76L154.167 76C155.271 76 156.167 76.8954 156.167 78ZM140.833 78C140.833 79.1046 139.938 80 138.833 80L131.167 80C130.062 80 129.167 79.1046 129.167 78C129.167 76.8954 130.062 76 131.167 76L138.833 76C139.938 76 140.833 76.8954 140.833 78ZM125.5 78C125.5 79.1046 124.605 80 123.5 80L115.833 80C114.729 80 113.833 79.1046 113.833 78C113.833 76.8954 114.729 76 115.833 76L123.5 76C124.605 76 125.5 76.8954 125.5 78ZM110.167 78C110.167 79.1046 109.271 80 108.167 80L100.5 80C99.3954 80 98.5 79.1046 98.5 78C98.5 76.8954 99.3954 76 100.5 76L108.167 76C109.271 76 110.167 76.8954 110.167 78ZM94.8333 78C94.8333 79.1046 93.9379 80 92.8333 80L89 80C87.8954 80 87 79.1046 87 78C87 76.8954 87.8954 76 89 76L92.8333 76C93.9379 76 94.8333 76.8954 94.8333 78Z" fill="#B99960"/>
<path d="M193 76.2679C194.333 77.0377 194.333 78.9623 193 79.7321L184 84.9282C182.667 85.698 181 84.7358 181 83.1962L181 72.8038C181 71.2642 182.667 70.302 184 71.0718L193 76.2679Z" fill="#B99960"/>
</g>
<rect y="22" width="152" height="112" rx="12" fill="#313C3D"/>
<g clip-path="url(#clip3_586_16846)">
<circle cx="115" cy="46" r="12" fill="#0D1E21"/>
<path d="M96.7138 69.4311C97.4617 65.6917 100.745 63 104.558 63H123.442C127.255 63 130.538 65.6917 131.286 69.4311L134 83H94L96.7138 69.4311Z" fill="#0D1E21"/>
</g>
<path d="M77.5 23.5H140C145.799 23.5 150.5 28.201 150.5 34V76.5H77.5V23.5Z" stroke="#313C3D" stroke-width="3"/>
<g clip-path="url(#clip4_586_16846)">
<path d="M0 34C0 27.3726 5.37258 22 12 22H76V78H0V34Z" fill="#0A2A30"/>
<circle cx="39" cy="46" r="12" fill="#656B65"/>
<path d="M20.7138 69.4311C21.4617 65.6917 24.745 63 28.5584 63H47.4416C51.255 63 54.5383 65.6917 55.2862 69.4311L58 83H18L20.7138 69.4311Z" fill="#656B65"/>
</g>
<path d="M12 23.5H74.5V76.5H1.5V34C1.5 28.201 6.20101 23.5 12 23.5Z" stroke="#0A2A30" stroke-width="3"/>
<g clip-path="url(#clip5_586_16846)">
<circle cx="39" cy="102" r="12" fill="#0D1E21"/>
<path d="M20.7138 125.431C21.4617 121.692 24.745 119 28.5584 119H47.4416C51.255 119 54.5383 121.692 55.2862 125.431L58 139H18L20.7138 125.431Z" fill="#0D1E21"/>
</g>
<path d="M1.5 79.5H74.5V132.5H12C6.20101 132.5 1.5 127.799 1.5 122V79.5Z" stroke="#313C3D" stroke-width="3"/>
<g clip-path="url(#clip6_586_16846)">
<path d="M76 78H152V122C152 128.627 146.627 134 140 134H76V78Z" fill="#0A2A30"/>
<circle cx="115" cy="102" r="12" fill="#656B65"/>
<path d="M96.7138 125.431C97.4617 121.692 100.745 119 104.558 119H123.442C127.255 119 130.538 121.692 131.286 125.431L134 139H94L96.7138 125.431Z" fill="#656B65"/>
</g>
<path d="M77.5 79.5H150.5V122C150.5 127.799 145.799 132.5 140 132.5H77.5V79.5Z" stroke="#0A2A30" stroke-width="3"/>
<rect x="48" y="10" width="56" height="24" rx="12" fill="#B99960"/>
<path d="M62 31C62 29.8954 62.8954 29 64 29H73.1716C74.9534 29 75.8457 31.1543 74.5858 32.4142L65.4142 41.5858C64.1543 42.8457 62 41.9534 62 40.1716V31Z" fill="#B99960"/>
<rect x="200" y="14" width="64" height="8" rx="4" fill="#313C3D"/>
<path fill-rule="evenodd" clip-rule="evenodd" d="M333 43V50C333 54.4183 329.418 58 325 58H208C203.582 58 200 54.4183 200 50V42C200 37.5817 203.582 34 208 34H324C324 38.9706 328.029 43 333 43Z" fill="#313C3D"/>
<rect x="208" y="42" width="48" height="8" rx="4" fill="#0A2A30"/>
<rect x="309" y="42" width="16" height="8" rx="4" fill="#0A2A30"/>
<rect x="200" y="66" width="133" height="24" rx="8" fill="#656B65"/>
<rect x="208" y="74" width="40" height="8" rx="4" fill="#313C3D"/>
<rect x="309" y="74" width="16" height="8" rx="4" fill="#313C3D"/>
<g clip-path="url(#clip7_586_16846)">
<rect x="200" y="98" width="133" height="24" rx="8" fill="#313C3D"/>
<rect x="208" y="106" width="48" height="8" rx="4" fill="#0A2A30"/>
<rect x="309" y="106" width="16" height="8" rx="4" fill="#0A2A30"/>
</g>
<g clip-path="url(#clip8_586_16846)">
<rect x="200" y="130" width="133" height="24" rx="8" fill="#313C3D"/>
<rect x="208" y="138" width="40" height="8" rx="4" fill="#0A2A30"/>
<rect x="309" y="138" width="16" height="8" rx="4" fill="#0A2A30"/>
<rect opacity="0.5" x="200" y="122" width="144" height="48" fill="url(#paint0_linear_586_16846)"/>
</g>
<g clip-path="url(#clip9_586_16846)">
<rect x="200" y="162" width="133" height="24" rx="8" fill="#313C3D"/>
<rect x="208" y="170" width="40" height="8" rx="4" fill="#0A2A30"/>
<rect x="309" y="170" width="16" height="8" rx="4" fill="#0A2A30"/>
<rect opacity="0.5" x="200" y="122" width="144" height="48" fill="url(#paint1_linear_586_16846)"/>
<rect opacity="0.5" width="144" height="8" transform="matrix(1 0 0 -1 200 178)" fill="black"/>
</g>
<circle cx="333" cy="34" r="6" fill="#B99960"/>
<mask id="mask0_586_16846" style="mask-type:alpha" maskUnits="userSpaceOnUse" x="400" y="0" width="40" height="40">
<circle cx="420" cy="20" r="20" fill="#656B65"/>
</mask>
<g mask="url(#mask0_586_16846)">
<path d="M440 20C440 31.0457 431.046 40 420 40C408.954 40 400 31.0457 400 20C400 8.95431 408.954 0 420 0C431.046 0 440 8.95431 440 20Z" fill="#313C3D"/>
<path d="M407.423 32.1706C408.09 28.8319 411.022 26.4286 414.427 26.4286H425.572C428.977 26.4286 431.909 28.8319 432.577 32.1706V32.1706C433.461 36.5906 430.08 40.7143 425.572 40.7143H414.427C409.919 40.7143 406.539 36.5906 407.423 32.1706V32.1706Z" fill="#0D1E21"/>
<path d="M434.837 22.2058C436.306 22.0493 437.516 21.8925 438.417 21.7646C437.528 31.1541 429.622 38.5 420 38.5C410.361 38.5 402.444 31.1281 401.578 21.7147C402.702 21.8498 404.308 22.029 406.256 22.208C410.172 22.5678 415.488 22.9286 421.071 22.9286C426.657 22.9286 431.444 22.5674 434.837 22.2058Z" stroke="#313C3D" stroke-width="3"/>
<circle cx="420.715" cy="14.2858" r="8.57143" fill="#0D1E21"/>
</g>
<path d="M287.309 83.9301C286.609 82.2756 288.276 80.6086 289.93 81.3088L303.41 87.0131C304.808 87.6049 304.705 89.6205 303.253 90.0658V90.0658C299.813 91.1207 297.121 93.8131 296.066 97.2528V97.2528C295.621 98.7047 293.605 98.8084 293.013 97.4098L287.309 83.9301Z" fill="#B99960"/>
<g clip-path="url(#clip10_586_16846)">
<path d="M381 68C381 61.3726 386.373 56 393 56H514C520.627 56 526 61.3726 526 68V178H381V68Z" fill="#313C3D"/>
<rect x="393" y="84" width="121" height="53" rx="8" fill="#656B65"/>
<rect x="401" y="105" width="64" height="8" rx="4" fill="#313C3D"/>
<rect x="401" y="121" width="40" height="8" rx="4" fill="#313C3D"/>
<rect x="393" y="145" width="54" height="53" rx="8" fill="#0A2A30"/>
<rect x="460" y="145" width="54" height="53" rx="8" fill="#0A2A30"/>
<circle cx="393" cy="68" r="4" fill="#0A2A30"/>
<circle cx="405" cy="68" r="4" fill="#0A2A30"/>
<circle cx="417" cy="68" r="4" fill="#0A2A30"/>
<rect opacity="0.5" x="381" y="122" width="145" height="48" fill="url(#paint2_linear_586_16846)"/>
<rect opacity="0.5" width="145" height="8" transform="matrix(1 0 0 -1 381 178)" fill="black"/>
</g>
</g>
<defs>
<linearGradient id="paint0_linear_586_16846" x1="292.102" y1="170" x2="292.102" y2="122" gradientUnits="userSpaceOnUse">
<stop/>
<stop offset="1" stop-opacity="0"/>
</linearGradient>
<linearGradient id="paint1_linear_586_16846" x1="292.102" y1="170" x2="292.102" y2="122" gradientUnits="userSpaceOnUse">
<stop/>
<stop offset="1" stop-opacity="0"/>
</linearGradient>
<linearGradient id="paint2_linear_586_16846" x1="473.741" y1="170" x2="473.741" y2="122" gradientUnits="userSpaceOnUse">
<stop/>
<stop offset="1" stop-opacity="0"/>
</linearGradient>
<clipPath id="clip0_586_16846">
<rect width="526" height="178" fill="white"/>
</clipPath>
<clipPath id="clip1_586_16846">
<rect width="109" height="20" fill="white" transform="translate(268 68)"/>
</clipPath>
<clipPath id="clip2_586_16846">
<rect width="109" height="20" fill="white" transform="translate(87 68)"/>
</clipPath>
<clipPath id="clip3_586_16846">
<path d="M76 22H140C146.627 22 152 27.3726 152 34V78H76V22Z" fill="white"/>
</clipPath>
<clipPath id="clip4_586_16846">
<path d="M0 34C0 27.3726 5.37258 22 12 22H76V78H0V34Z" fill="white"/>
</clipPath>
<clipPath id="clip5_586_16846">
<path d="M0 78H76V134H12C5.37258 134 0 128.627 0 122V78Z" fill="white"/>
</clipPath>
<clipPath id="clip6_586_16846">
<path d="M76 78H152V122C152 128.627 146.627 134 140 134H76V78Z" fill="white"/>
</clipPath>
<clipPath id="clip7_586_16846">
<rect x="200" y="98" width="133" height="24" rx="8" fill="white"/>
</clipPath>
<clipPath id="clip8_586_16846">
<rect x="200" y="130" width="133" height="24" rx="8" fill="white"/>
</clipPath>
<clipPath id="clip9_586_16846">
<rect x="200" y="162" width="133" height="24" rx="8" fill="white"/>
</clipPath>
<clipPath id="clip10_586_16846">
<path d="M381 68C381 61.3726 386.373 56 393 56H514C520.627 56 526 61.3726 526 68V178H381V68Z" fill="white"/>
</clipPath>
</defs>
</svg>
