 <svg
                                             width="49"
                                             height="48"
                                             viewBox="0 0 49 48"
                                             fill="white"
                                             xmlns="http://www.w3.org/2000/svg"
                                          >
                                             <path
                                                fill-rule="evenodd"
                                                clip-rule="evenodd"
                                                d="M7.99836 7.02952C3.46531 11.5626 0.96875 17.5895 0.96875 24C0.96875 30.4104 3.46531 36.4373 7.99836 40.9705C12.5313 45.5035 18.5582 47.9999 24.9687 47.9999C38.2024 47.9999 48.9688 37.2337 48.9688 24C48.9688 17.5895 46.4722 11.5625 41.9393 7.02952C37.4062 2.49631 31.3794 0 24.9687 0C18.5583 0 12.5313 2.49631 7.99836 7.02952ZM1.95793 23.9999C1.95793 11.2914 12.2604 0.989017 24.9688 0.989017C37.6773 0.989017 47.9797 11.2914 47.9797 23.9999C47.9797 36.7082 37.6772 47.0108 24.9688 47.0108C12.2604 47.0108 1.95793 36.7083 1.95793 23.9999Z"
                                                fill="white"
                                             />
                                             <path
                                                fill-rule="evenodd"
                                                clip-rule="evenodd"
                                                d="M24.972 38.6978C16.8544 38.6978 10.2734 32.1169 10.2734 23.9993C10.2734 15.8816 16.8544 9.30078 24.972 9.30078C33.0897 9.30078 39.6705 15.8817 39.6705 23.9993C39.6705 32.1171 33.0898 38.6978 24.972 38.6978ZM11.2191 23.9992H24.972V10.2461C17.3766 10.2461 11.2191 16.4037 11.2191 23.9992ZM24.9726 37.7523V23.9992H38.7256C38.7256 31.5946 32.568 37.7523 24.9726 37.7523Z"
                                                fill="white"
                                             />
                                             <path
                                                fill-rule="evenodd"
                                                clip-rule="evenodd"
                                                d="M25.7422 8.30281L27.3377 4.07375V8.30281H28.5503V2.24609H26.7283L25.0713 6.58257H25.0886L23.4312 2.24609H21.6094V8.30281H22.822V4.07375L24.4176 8.30281H25.7422Z"
                                                fill="white"
                                             />
                                             <path
                                                fill-rule="evenodd"
                                                clip-rule="evenodd"
                                                d="M42.0382 10.8215L39.7552 14.0537L43.2946 12.3734L44.2316 13.5307L38.6608 16.2311L37.5609 14.8621L39.7521 11.6582L39.7393 11.6421L36.1496 13.1192L35.0391 11.7587L38.8388 6.87109L39.776 8.02838L37.3965 11.141L41.0328 9.57991L42.0382 10.8215Z"
                                                fill="white"
                                             />
                                             <path
                                                fill-rule="evenodd"
                                                clip-rule="evenodd"
                                                d="M14.1645 9.97677C13.6773 9.50323 12.9242 9.3605 12.2171 9.79881C12.3522 9.44879 12.2971 9.09166 12.2252 8.89458C11.9387 8.37203 11.8277 8.2795 11.6064 8.09496L11.5633 8.05894C10.7507 7.37699 9.89531 7.95915 9.28366 8.68816L6.32812 12.2102L10.9741 16.1088L14.0909 12.3945C14.8031 11.5458 14.913 10.7045 14.1645 9.97677ZM9.92966 9.5599C10.1353 9.31473 10.6 9.32476 10.899 9.57559C11.2276 9.85136 11.2286 10.2424 11.0077 10.5053L9.2526 12.5969L8.15447 11.6753L9.92966 9.5599ZM11.2021 14.2327L13.0525 12.0275C13.2984 11.7347 13.2628 11.2782 12.9043 10.9776C12.5875 10.7117 12.1179 10.7849 11.9072 11.0359L10.0418 13.259L11.2021 14.2327Z"
                                                fill="white"
                                             />
                                          </svg>