<svg width="250" height="223" viewBox="0 0 250 223" fill="none" xmlns="http://www.w3.org/2000/svg">
<path fill-rule="evenodd" clip-rule="evenodd" d="M223 111.5C223 173.08 173.08 223 111.5 223C54.1447 223 6.90406 179.694 0.692521 123.996C0.794734 123.999 0.897265 124 1.0001 124H57.0001C63.6275 124 69.0001 118.628 69.0001 112C69.0001 105.373 63.6275 100 57.0001 100H1.0001C0.861235 100 0.722925 100.002 0.585205 100.007C6.33784 43.827 53.8008 0 111.5 0C173.08 0 223 49.9202 223 111.5ZM80.6914 89.931C81.3915 88.2765 79.7246 86.6096 78.0701 87.3097L64.5903 93.014C63.1918 93.6059 63.2954 95.6215 64.7473 96.0668C68.187 97.1217 70.8794 99.8141 71.9343 103.254C72.3796 104.706 74.3952 104.809 74.9871 103.411L80.6914 89.931Z" fill="#E6E4DF"/>
<path d="M142.309 153.931C141.609 152.277 143.276 150.61 144.93 151.31L158.41 157.014C159.808 157.606 159.705 159.622 158.253 160.067V160.067C154.813 161.122 152.121 163.814 151.066 167.254V167.254C150.621 168.706 148.605 168.809 148.013 167.411L142.309 153.931Z" fill="#2BCB9B"/>
<rect x="154" y="163.998" width="80" height="24" rx="12" fill="#2BCB9B"/>
<path d="M158.309 41.9312C157.609 40.2767 159.276 38.6097 160.93 39.3099L174.41 45.0142C175.808 45.606 175.705 47.6216 174.253 48.0669V48.0669C170.813 49.1218 168.121 51.8142 167.066 55.2539V55.2539C166.621 56.7058 164.605 56.8095 164.013 55.4109L158.309 41.9312Z" fill="#B9A889"/>
<rect x="170" y="51.998" width="80" height="24" rx="12" fill="#B9A889"/>
</svg>
