<svg width="526" height="178" viewBox="0 0 526 178" fill="none" xmlns="http://www.w3.org/2000/svg">
<g clip-path="url(#clip0_583_16722)">
<g clip-path="url(#clip1_583_16722)">
<path fill-rule="evenodd" clip-rule="evenodd" d="M237 102C237 103.105 236.105 104 235 104L231.167 104C230.062 104 229.167 103.105 229.167 102C229.167 100.895 230.062 100 231.167 100L235 100C236.105 100 237 100.895 237 102ZM225.5 102C225.5 103.105 224.605 104 223.5 104L215.833 104C214.729 104 213.833 103.105 213.833 102C213.833 100.895 214.729 100 215.833 100L223.5 100C224.605 100 225.5 100.895 225.5 102ZM210.167 102C210.167 103.105 209.271 104 208.167 104L200.5 104C199.395 104 198.5 103.105 198.5 102C198.5 100.895 199.395 100 200.5 100L208.167 100C209.271 100 210.167 100.895 210.167 102ZM194.833 102C194.833 103.105 193.938 104 192.833 104L185.167 104C184.062 104 183.167 103.105 183.167 102C183.167 100.895 184.062 100 185.167 100L192.833 100C193.938 100 194.833 100.895 194.833 102ZM179.5 102C179.5 103.105 178.605 104 177.5 104L169.833 104C168.729 104 167.833 103.105 167.833 102C167.833 100.895 168.729 100 169.833 100L177.5 100C178.605 100 179.5 100.895 179.5 102ZM164.167 102C164.167 103.105 163.271 104 162.167 104L154.5 104C153.395 104 152.5 103.105 152.5 102C152.5 100.895 153.395 100 154.5 100L162.167 100C163.271 100 164.167 100.895 164.167 102ZM148.833 102C148.833 103.105 147.938 104 146.833 104L143 104C141.895 104 141 103.105 141 102C141 100.895 141.895 100 143 100L146.833 100C147.938 100 148.833 100.895 148.833 102Z" fill="#B99960"/>
<path d="M247 100.268C248.333 101.038 248.333 102.962 247 103.732L238 108.928C236.667 109.698 235 108.736 235 107.196L235 96.8038C235 95.2642 236.667 94.302 238 95.0718L247 100.268Z" fill="#B99960"/>
</g>
<g clip-path="url(#clip2_583_16722)">
<path fill-rule="evenodd" clip-rule="evenodd" d="M397 102C397 103.105 396.105 104 395 104L391.167 104C390.062 104 389.167 103.105 389.167 102C389.167 100.895 390.062 100 391.167 100L395 100C396.105 100 397 100.895 397 102ZM385.5 102C385.5 103.105 384.605 104 383.5 104L375.833 104C374.729 104 373.833 103.105 373.833 102C373.833 100.895 374.729 100 375.833 100L383.5 100C384.605 100 385.5 100.895 385.5 102ZM370.167 102C370.167 103.105 369.271 104 368.167 104L360.5 104C359.395 104 358.5 103.105 358.5 102C358.5 100.895 359.395 100 360.5 100L368.167 100C369.271 100 370.167 100.895 370.167 102ZM354.833 102C354.833 103.105 353.938 104 352.833 104L345.167 104C344.062 104 343.167 103.105 343.167 102C343.167 100.895 344.062 100 345.167 100L352.833 100C353.938 100 354.833 100.895 354.833 102ZM339.5 102C339.5 103.105 338.605 104 337.5 104L329.833 104C328.729 104 327.833 103.105 327.833 102C327.833 100.895 328.729 100 329.833 100L337.5 100C338.605 100 339.5 100.895 339.5 102ZM324.167 102C324.167 103.105 323.271 104 322.167 104L314.5 104C313.395 104 312.5 103.105 312.5 102C312.5 100.895 313.395 100 314.5 100L322.167 100C323.271 100 324.167 100.895 324.167 102ZM308.833 102C308.833 103.105 307.938 104 306.833 104L303 104C301.895 104 301 103.105 301 102C301 100.895 301.895 100 303 100L306.833 100C307.938 100 308.833 100.895 308.833 102Z" fill="#B99960"/>
<path d="M407 100.268C408.333 101.038 408.333 102.962 407 103.732L398 108.928C396.667 109.698 395 108.736 395 107.196L395 96.8038C395 95.2642 396.667 94.302 398 95.0718L407 100.268Z" fill="#B99960"/>
</g>
<path d="M414 71C414 64.3726 419.373 59 426 59H514C520.627 59 526 64.3726 526 71V178H414V71Z" fill="#313C3D"/>
<rect x="428" y="91" width="84" height="38" rx="8" fill="#0A2A30"/>
<rect x="428" y="137" width="65" height="8" rx="4" fill="#0A2A30"/>
<rect x="428" y="153" width="41" height="8" rx="4" fill="#0A2A30"/>
<ellipse cx="510" cy="74.9286" rx="8" ry="7.92857" fill="#0A2A30"/>
<rect x="422" y="71" width="32" height="8" rx="4" fill="#0A2A30"/>
<rect opacity="0.5" x="414" y="122" width="112" height="48" fill="url(#paint0_linear_583_16722)"/>
<rect opacity="0.5" width="112" height="8" transform="matrix(1 0 0 -1 414 178)" fill="black"/>
<rect x="416" y="23" width="64" height="8" rx="4" fill="#313C3D"/>
<rect x="416" y="39" width="40" height="8" rx="4" fill="#313C3D"/>
<path d="M254 35C254 28.3726 259.373 23 266 23H354C360.627 23 366 28.3726 366 35V178H254V35Z" fill="#313C3D"/>
<path d="M254 35C254 28.3726 259.373 23 266 23H354C360.627 23 366 28.3726 366 35V170H254V35Z" fill="#313C3D"/>
<rect x="266" y="55" width="88" height="24" rx="8" fill="#0A2A30"/>
<rect x="266" y="87" width="88" height="24" rx="8" fill="#0A2A30"/>
<rect x="266" y="119" width="88" height="24" rx="8" fill="#656B65"/>
<rect x="266" y="151" width="88" height="24" rx="8" fill="#0A2A30"/>
<ellipse cx="350" cy="38.9286" rx="8" ry="7.92857" fill="#0A2A30"/>
<rect x="262" y="35" width="32" height="8" rx="4" fill="#0A2A30"/>
<rect opacity="0.5" x="254" y="122" width="112" height="48" fill="url(#paint1_linear_583_16722)"/>
<rect opacity="0.5" width="112" height="8" transform="matrix(1 0 0 -1 254 178)" fill="black"/>
<path d="M94 46C94 39.3726 99.3726 34 106 34H194C200.627 34 206 39.3726 206 46V178H94V46Z" fill="#313C3D"/>
<rect x="106" y="143" width="88" height="16" rx="8" fill="#656B65"/>
<rect x="106" y="46" width="88" height="88" rx="8" fill="#0A2A30"/>
<circle cx="136" cy="122" r="4" fill="#656B65"/>
<circle cx="150" cy="122" r="4" fill="#313C3D"/>
<circle cx="164" cy="122" r="4" fill="#313C3D"/>
<rect opacity="0.5" x="94" y="122" width="112" height="48" fill="url(#paint2_linear_583_16722)"/>
<rect opacity="0.5" width="112" height="8" transform="matrix(1 0 0 -1 94 178)" fill="black"/>
<rect x="12" y="80" width="40" height="8" rx="4" fill="#313C3D"/>
<rect y="64" width="64" height="8" rx="4" fill="#313C3D"/>
<mask id="mask0_583_16722" style="mask-type:alpha" maskUnits="userSpaceOnUse" x="4" y="0" width="56" height="56">
<circle cx="32" cy="28" r="28" fill="#656B65"/>
</mask>
<g mask="url(#mask0_583_16722)">
<path fill-rule="evenodd" clip-rule="evenodd" d="M56.8718 15.1269C55.6991 15.6866 54.3861 16 53 16C48.0294 16 44 11.9706 44 7C44 5.61387 44.3134 4.30093 44.8731 3.12815C41.019 1.12931 36.6414 0 32 0C16.536 0 4 12.536 4 28C4 43.464 16.536 56 32 56C47.464 56 60 43.464 60 28C60 23.3586 58.8707 18.981 56.8718 15.1269Z" fill="#313C3D"/>
<path d="M14.7138 43.4311C15.4617 39.6917 18.745 37 22.5584 37H41.4416C45.255 37 48.5383 39.6917 49.2862 43.4311L50.0862 47.4311C51.0763 52.3814 47.2899 57 42.2416 57H21.7584C16.7101 57 12.9237 52.3814 13.9138 47.4311L14.7138 43.4311Z" fill="#0D1E21"/>
<path d="M58.252 29.7966C58.3168 29.7871 58.3801 29.7777 58.4419 29.7685C57.5319 43.5795 46.0413 54.5 32 54.5C17.941 54.5 6.43899 43.5518 5.55467 29.716C5.77025 29.7428 6.00412 29.7715 6.25547 29.8017C7.82497 29.9907 10.0769 30.2422 12.8138 30.4937C18.2844 30.9963 25.7078 31.5 33.5 31.5C41.2951 31.5 47.9742 30.996 52.7079 30.4916C55.0754 30.2393 56.9579 29.9867 58.252 29.7966Z" stroke="#313C3D" stroke-width="3"/>
<circle cx="33" cy="20" r="12" fill="#0D1E21"/>
</g>
<circle cx="53" cy="7" r="6" fill="#B99960"/>
<path d="M142.309 7.93004C141.609 6.27553 143.276 4.60859 144.93 5.30874L158.41 11.013C159.808 11.6049 159.705 13.6205 158.253 14.0658C154.813 15.1207 152.121 17.8131 151.066 21.2528C150.621 22.7047 148.605 22.8083 148.013 21.4098L142.309 7.93004Z" fill="#B99960"/>
<rect x="154" y="17.9998" width="80" height="24" rx="12" fill="#B99960"/>
<path d="M57.5964 107.309C59.2509 106.609 60.9179 108.276 60.2177 109.93L54.5134 123.41C53.9216 124.808 51.9059 124.705 51.4607 123.253C50.4058 119.813 47.7134 117.121 44.2736 116.066C42.8218 115.621 42.7181 113.605 44.1167 113.013L57.5964 107.309Z" fill="#B99960"/>
</g>
<defs>
<linearGradient id="paint0_linear_583_16722" x1="485.635" y1="170" x2="485.635" y2="122" gradientUnits="userSpaceOnUse">
<stop/>
<stop offset="1" stop-opacity="0"/>
</linearGradient>
<linearGradient id="paint1_linear_583_16722" x1="325.635" y1="170" x2="325.635" y2="122" gradientUnits="userSpaceOnUse">
<stop/>
<stop offset="1" stop-opacity="0"/>
</linearGradient>
<linearGradient id="paint2_linear_583_16722" x1="165.635" y1="170" x2="165.635" y2="122" gradientUnits="userSpaceOnUse">
<stop/>
<stop offset="1" stop-opacity="0"/>
</linearGradient>
<clipPath id="clip0_583_16722">
<rect width="526" height="178" fill="white"/>
</clipPath>
<clipPath id="clip1_583_16722">
<rect width="109" height="20" fill="white" transform="translate(141 92)"/>
</clipPath>
<clipPath id="clip2_583_16722">
<rect width="109" height="20" fill="white" transform="translate(301 92)"/>
</clipPath>
</defs>
</svg>
