 <svg
                                             width="105"
                                             height="25"
                                             viewBox="0 0 105 25"
                                             fill="none"
                                             xmlns="http://www.w3.org/2000/svg"
                                          >
                                             <path
                                                fill-rule="evenodd"
                                                clip-rule="evenodd"
                                                d="M22.5547 4.87377V1.00781H0.554688V4.87377H9.57572V19.1416H0.554688V23.0078H22.5547V19.1416H13.5334V4.87377H22.5547Z"
                                                fill="white"
                                             />
                                             <path
                                                fill-rule="evenodd"
                                                clip-rule="evenodd"
                                                d="M77.5547 4.85829V1.00781H55.5547V23.0078H77.5547V19.157H59.502V13.9329H73.5932V10.0821H59.502V4.85829H77.5547Z"
                                                fill="white"
                                             />
                                             <path
                                                fill-rule="evenodd"
                                                clip-rule="evenodd"
                                                d="M38.1518 19.2131H31.526V4.78372H38.2138C42.5577 4.88687 45.384 7.91126 45.384 12.0256C45.384 16.1635 42.531 19.1404 38.1518 19.2131ZM38.3495 1H27.5703V23H38.1348C44.9763 22.9226 49.6894 18.1409 49.6894 11.9683C49.6894 5.86109 45.0746 1.17106 38.3495 1Z"
                                                fill="white"
                                             />
                                             <path
                                                fill-rule="evenodd"
                                                clip-rule="evenodd"
                                                d="M92.4331 19.8878C88.051 19.8878 84.4969 16.3881 84.4969 12.0715C84.4969 7.75948 88.051 4.26034 92.4331 4.26034C96.8152 4.26034 100.37 7.75948 100.37 12.0715C100.37 16.3881 96.8152 19.8878 92.4331 19.8878ZM92.4331 0.140625C85.7387 0.140625 80.3125 5.48348 80.3125 12.0715C80.3125 18.6629 85.7387 24.0055 92.4331 24.0055C99.1272 24.0055 104.555 18.6629 104.555 12.0715C104.555 5.48348 99.1272 0.140625 92.4331 0.140625Z"
                                                fill="white"
                                             />
                                          </svg>