 <svg
                                             width="117"
                                             height="26"
                                             viewBox="0 0 117 26"
                                             fill="none"
                                             xmlns="http://www.w3.org/2000/svg"
                                          >
                                             <path
                                                d="M82.2887 1.41602H78.5312V25.3109H82.2887V1.41602Z"
                                                fill="white"
                                             />
                                             <path
                                                d="M53.162 25.3504C59.8946 25.3504 65.3725 19.8103 65.3725 12.9987C65.3725 6.19053 59.8946 0.650391 53.162 0.650391C46.4293 0.650391 40.9531 6.19053 40.9531 12.9987C40.9531 19.8103 46.4293 25.3504 53.162 25.3504ZM53.162 4.26666C57.8827 4.26666 61.5798 8.0993 61.5798 12.9937C61.5798 17.8897 57.881 21.7224 53.162 21.7224C48.4413 21.7224 44.7424 17.8897 44.7424 12.9937C44.7424 8.09763 48.4429 4.26666 53.162 4.26666Z"
                                                fill="white"
                                             />
                                             <path
                                                d="M106.115 0.956428L106.114 0.958105C106.083 0.884304 106.01 0.833984 105.926 0.833984C105.837 0.833984 105.764 0.889336 105.735 0.968169H105.733L95.25 24.9839H98.9706L105.926 9.05111L112.888 24.9839H116.605L106.115 0.956428Z"
                                                fill="white"
                                             />
                                             <path
                                                d="M23.0663 0.962226C23.0261 0.861588 22.9272 0.782755 22.8133 0.781077C22.6927 0.7794 22.5888 0.859911 22.547 0.965581L22.5453 0.963904L17.9553 13.3525L16.8831 16.2391L11.2226 0.960549C11.1824 0.859911 11.0853 0.781077 10.9697 0.7794C10.8524 0.776045 10.7519 0.854879 10.7083 0.958872L0.96875 24.9846H4.88536L7.91747 17.6732L10.8826 9.88382L16.672 24.9209C16.7039 25.0014 16.7826 25.0584 16.8747 25.0601C16.9702 25.0618 17.054 25.003 17.0875 24.9175L22.8904 9.90059L28.896 24.9812H32.8126L23.0663 0.962226Z"
                                                fill="white"
                                             />
                                          </svg>