   <svg
                              viewBox="0 0 24 24"
                              fill="none"
                              xmlns="http://www.w3.org/2000/svg"
                           >
                              <path
                                 fill-rule="evenodd"
                                 clip-rule="evenodd"
                                 d="M11.106 2.55191L12 0.763916L12.8939 2.55177L12.8944 2.55277L12.901 2.56571C12.9071 2.57743 12.9169 2.59639 12.9305 2.62211C12.9577 2.67356 13 2.75196 13.0571 2.85347C13.1714 3.05663 13.3445 3.3515 13.5744 3.70746C14.0354 4.4213 14.7182 5.37058 15.6045 6.31604C17.3955 8.22642 19.8995 9.99998 23 9.99998V12C19.1005 12 16.1045 9.77354 14.1455 7.68393C13.72 7.23007 13.3378 6.77692 13 6.34527V24H11V6.34527C10.6622 6.77692 10.28 7.23007 9.85454 7.68393C7.89552 9.77354 4.89951 12 1 12V9.99998C4.10049 9.99998 6.60448 8.22642 8.39546 6.31604C9.28183 5.37058 9.96457 4.4213 10.4256 3.70746C10.6555 3.3515 10.8286 3.05663 10.9429 2.85347C11 2.75196 11.0423 2.67356 11.0695 2.62211C11.0831 2.59639 11.0929 2.57743 11.099 2.56571L11.106 2.55191Z"
                                 fill="CurrentColor"
                              />
                           </svg>